<svg width="60" height="60" viewBox="0 0 60 60" fill="none" xmlns="http://www.w3.org/2000/svg">
<path d="M30.6696 23.5203C26.7107 23.5203 23.5157 26.7153 23.5157 30.6743C23.5157 34.6333 26.7107 37.8283 30.6696 37.8283C34.6285 37.8283 37.8235 34.6333 37.8235 30.6743C37.8235 26.7153 34.6285 23.5203 30.6696 23.5203ZM30.6696 35.3239C28.1094 35.3239 26.0201 33.2345 26.0201 30.6743C26.0201 28.1141 28.1094 26.0247 30.6696 26.0247C33.2298 26.0247 35.3191 28.1141 35.3191 30.6743C35.3191 33.2345 33.2298 35.3239 30.6696 35.3239ZM38.1165 21.56C37.1921 21.56 36.4457 22.3064 36.4457 23.2308C36.4457 24.1551 37.1921 24.9015 38.1165 24.9015C39.0408 24.9015 39.7872 24.1586 39.7872 23.2308C39.7875 23.0113 39.7445 22.7939 39.6606 22.5911C39.5767 22.3882 39.4537 22.2039 39.2985 22.0487C39.1433 21.8935 38.959 21.7705 38.7562 21.6866C38.5533 21.6027 38.336 21.5597 38.1165 21.56ZM44.6146 30.6743C44.6146 28.7489 44.6321 26.8409 44.5239 24.919C44.4158 22.6866 43.9066 20.7054 42.2742 19.073C40.6383 17.4371 38.6606 16.9313 36.4283 16.8232C34.5029 16.715 32.595 16.7325 30.6731 16.7325C28.7477 16.7325 26.8397 16.715 24.9179 16.8232C22.6855 16.9313 20.7043 17.4406 19.072 19.073C17.4361 20.7089 16.9303 22.6866 16.8222 24.919C16.7141 26.8444 16.7315 28.7524 16.7315 30.6743C16.7315 32.5962 16.7141 34.5077 16.8222 36.4296C16.9303 38.662 17.4396 40.6432 19.072 42.2756C20.7078 43.9115 22.6855 44.4173 24.9179 44.5254C26.8432 44.6336 28.7512 44.6161 30.6731 44.6161C32.5984 44.6161 34.5064 44.6336 36.4283 44.5254C38.6606 44.4173 40.6418 43.908 42.2742 42.2756C43.91 40.6397 44.4158 38.662 44.5239 36.4296C44.6355 34.5077 44.6146 32.5997 44.6146 30.6743ZM41.5452 38.8992C41.2906 39.534 40.9836 40.0084 40.4918 40.4967C40 40.9885 39.5291 41.2955 38.8943 41.5501C37.0596 42.2791 32.7031 42.1152 30.6696 42.1152C28.6361 42.1152 24.2761 42.2791 22.4414 41.5536C21.8066 41.299 21.3322 40.992 20.8439 40.5002C20.3521 40.0084 20.0451 39.5375 19.7905 38.9027C19.065 37.0644 19.2289 32.7078 19.2289 30.6743C19.2289 28.6408 19.065 24.2807 19.7905 22.4459C20.0451 21.8111 20.3521 21.3367 20.8439 20.8484C21.3357 20.3601 21.8066 20.0496 22.4414 19.795C24.2761 19.0695 28.6361 19.2334 30.6696 19.2334C32.7031 19.2334 37.0631 19.0695 38.8978 19.795C39.5326 20.0496 40.007 20.3566 40.4953 20.8484C40.9871 21.3402 41.294 21.8111 41.5487 22.4459C42.2742 24.2807 42.1102 28.6408 42.1102 30.6743C42.1102 32.7078 42.2742 37.0644 41.5452 38.8992Z" fill="#FF99F1"/>
<circle cx="29.9771" cy="29.9771" r="27.9771" stroke="#FF99F1" stroke-width="4"/>
</svg>
