<svg width="60" height="60" viewBox="0 0 60 60" fill="none" xmlns="http://www.w3.org/2000/svg">
<path fill-rule="evenodd" clip-rule="evenodd" d="M27.088 26.448H32.2669V29.0281C33.0134 27.5445 34.9263 26.211 37.8001 26.211C43.3088 26.211 44.6162 29.1639 44.6162 34.5822V44.6172H39.039V35.8161C39.039 32.7306 38.2925 30.9902 36.3939 30.9902C33.7607 30.9902 32.6652 32.8664 32.6652 35.8161V44.6172H27.088V26.448ZM17.5272 44.3801H23.1043V26.211H17.5272V44.3801ZM23.9011 20.2863C23.9011 20.7531 23.8083 21.2154 23.6282 21.6467C23.448 22.0779 23.1839 22.4698 22.851 22.7999C22.518 23.13 22.1228 23.3919 21.6878 23.5705C21.2528 23.7492 20.7866 23.8411 20.3158 23.8411C19.8449 23.8411 19.3787 23.7492 18.9437 23.5705C18.5088 23.3919 18.1135 23.13 17.7806 22.7999C17.4476 22.4698 17.1836 22.0779 17.0034 21.6467C16.8232 21.2154 16.7305 20.7531 16.7305 20.2863C16.7305 19.3435 17.1082 18.4393 17.7806 17.7726C18.453 17.106 19.3649 16.7314 20.3158 16.7314C21.2667 16.7314 22.1786 17.106 22.851 17.7726C23.5233 18.4393 23.9011 19.3435 23.9011 20.2863Z" fill="#FF99F1"/>
<circle cx="29.9771" cy="29.9771" r="27.9771" stroke="#FF99F1" stroke-width="4"/>
</svg>
