<svg width="28" height="28" viewBox="0 0 28 28" fill="none" xmlns="http://www.w3.org/2000/svg">
<g clip-path="url(#clip0_1290_4277)">
<path fill-rule="evenodd" clip-rule="evenodd" d="M10.3575 9.71655H15.5364V12.2966C16.2829 10.813 18.1958 9.47957 21.0696 9.47957C26.5783 9.47957 27.8857 12.4324 27.8857 17.8508V27.8857H22.3086V19.0847C22.3086 15.9992 21.5621 14.2588 19.6635 14.2588C17.0302 14.2588 15.9347 16.135 15.9347 19.0847V27.8857H10.3575V9.71655ZM0.796737 27.6487H6.37388V9.47957H0.796737V27.6487ZM7.17062 3.55484C7.17062 4.02166 7.07788 4.48393 6.8977 4.91522C6.71752 5.3465 6.45342 5.73839 6.1205 6.06849C5.78757 6.39859 5.39233 6.66043 4.95734 6.83908C4.52235 7.01772 4.05613 7.10967 3.58531 7.10967C3.11447 7.10967 2.64826 7.01772 2.21328 6.83908C1.77829 6.66043 1.38303 6.39859 1.05011 6.06849C0.717179 5.73839 0.453087 5.3465 0.272917 4.91522C0.092734 4.48393 0 4.02166 0 3.55484C0 2.61204 0.37774 1.70785 1.05011 1.04118C1.72249 0.374533 2.63442 0 3.58531 0C4.53618 0 5.44813 0.374533 6.1205 1.04118C6.79288 1.70785 7.17062 2.61204 7.17062 3.55484Z" fill="#FF99F1"/>
</g>
<defs>
<clipPath id="clip0_1290_4277">
<rect width="28" height="28" fill="white"/>
</clipPath>
</defs>
</svg>
