<svg width="280" height="30" viewBox="0 0 280 30" fill="none" xmlns="http://www.w3.org/2000/svg">
<path d="M21.6652 29.7604C21.8385 29.7223 22.5353 29.8149 22.837 29.7989C22.495 30.2013 21.0403 29.8986 21.6652 29.7604ZM52.6086 0.537484C52.3583 0.636975 52.108 0.736467 51.8577 0.835958C52.569 0.900603 53.5251 0.82758 54.1851 0.92202C54.2931 0.93788 54.013 1.22594 54.2685 1.2388C54.524 1.25159 54.4747 0.857923 54.8463 0.815815C55.2631 0.769779 57.1718 1.04403 57.8328 1.03738C60.3049 1.01081 62.7983 0.785991 65.2754 0.949486C62.7181 1.24073 65.2951 1.53715 66.0114 1.41093C66.1701 1.3817 66.1447 0.649853 68.7105 0.834125C70.3411 0.951064 68.835 1.99735 71.556 1.47319C69.4636 0.741237 71.5212 0.792535 73.1613 0.768204C73.4441 0.763893 75.7276 0.873864 76.7363 0.841449C77.0815 0.830174 77.6073 0.44683 78.0651 0.43677C78.3801 0.430134 78.6184 0.63971 79.0862 0.629039C81.267 0.581799 83.4117 0.565503 85.5964 0.636362C84.3197 1.62147 86.5984 1.0562 86.7008 1.1033C87.2213 1.37076 84.8673 1.4469 85.7982 1.61418C87.0992 1.58366 88.4002 1.55314 89.7011 1.52263C88.6334 1.40167 91.1147 0.693072 91.5714 1.0154C91.3703 0.144928 97.5009 1.77303 98.4341 1.48234C98.6284 1.42094 97.3562 0.990719 100.308 1.18753C100.627 1.2094 100.506 1.47203 100.674 1.44755C100.774 1.43283 101.382 0.598081 102.029 1.05935C102.266 1.22771 100.753 1.77595 104.075 1.55558C102.752 0.705978 108.68 1.09547 109.771 1.30838C109.553 1.19424 109.335 1.0801 109.117 0.965962C110.196 1.27387 110.39 0.985011 110.633 1.00075C111.612 1.06398 112.958 1.35509 113.869 1.32852C114.937 1.29796 114.94 0.769586 116.184 0.975117C115.889 0.858536 115.594 0.741954 115.299 0.625372C116.158 0.653449 117.017 0.681527 117.876 0.709604C115.886 1.40903 118.305 0.742973 118.464 0.727915C118.719 0.70246 118.353 0.988799 118.779 0.953143C118.822 0.947275 118.759 0.677631 119.414 0.647346C120.783 0.584992 120.567 0.924017 121.141 0.920183C121.194 0.918436 121.009 0.675516 122.002 0.618048C125.157 0.435099 121.986 0.804204 121.865 0.837783C121.706 0.882069 122.788 1.89723 120.108 1.53727C121.008 1.65187 121.099 2.10109 121.2 2.11225C121.29 2.12141 122.849 2.05813 122.935 2.04266C123.701 1.89011 123.027 1.58313 123.176 1.52812C123.298 1.48377 125.176 1.88383 125.617 0.960468C126.515 1.81216 125.1 1.73413 123.593 1.86504C123.373 2.03981 125.028 2.20976 125.115 2.20929C127.249 2.20774 126.067 1.50717 126.534 1.05935C126.779 0.825036 127.649 1.30299 126.846 0.674812C128.784 0.608504 127.609 0.972516 127.734 1.02639C127.923 1.10554 128.6 0.925498 128.685 0.94948C128.81 0.984984 128.377 1.20247 128.868 1.27908C128.95 1.29022 129.741 0.915959 128.721 0.73707C130.084 0.790276 129.971 0.47114 130.434 1.11428C131.373 -0.102463 131.115 1.83349 131.485 1.90166C132.468 2.08138 132.183 1.12607 132.235 1.07949C132.592 0.780963 135.314 1.10913 135.988 0.971453C135.722 1.65952 133.83 0.978966 133.407 1.11245C131.997 1.55655 135.395 1.45646 134.371 2.32099C134.8 2.08356 135.23 1.84612 135.659 1.60868C136.446 2.16455 135.329 2.40693 137.448 2.2038C137.795 1.72402 135.95 2.27958 136.32 1.90166C136.538 1.67987 137.767 1.63223 137.791 1.5153C137.815 1.37454 136.705 1.54136 136.88 1.32486C137.262 0.857664 141.312 1.30243 138.229 1.55741C139.089 1.54943 139.532 2.47869 140.278 2.18915C140.76 2.00121 138.047 0.717794 142.117 0.953141C142.204 1.39195 140.49 1.08272 140.445 1.11611C140.383 1.16472 140.693 2.15492 140.747 2.2038C140.936 2.36472 145.092 1.83448 145.971 2.33198C145.623 1.75968 149.111 2.22986 149.491 2.05548C149.592 2.00733 149.214 1.65678 149.322 1.61967C149.997 1.39883 151.821 2.02461 152.668 2.04083C153.615 2.0592 153.495 1.75643 153.548 1.757C153.965 1.77389 153.632 1.97915 153.886 1.97857C154.271 1.97759 156.916 2.01957 157.049 1.97674C157.088 1.96339 156.656 1.61753 157.233 1.55192C157.333 1.54055 157.269 1.95061 158.977 1.77348C161.034 1.56045 157.549 1.26354 158.404 0.834117C159.725 1.44555 159.682 0.839643 160.04 0.88722C160.164 0.904549 161.087 1.41971 162.09 1.38712C161.37 1.47074 160.651 1.55436 159.931 1.63798C160.638 1.72831 162.012 1.6165 162.595 1.71855C162.879 1.76822 162.645 2.19143 163.262 2.17999C163.394 2.17526 163.914 1.14421 162.296 1.60685C162.166 1.2387 162.936 1.47844 163.293 1.3743C163.347 1.35807 163.56 0.743024 164.017 1.12527C164.126 1.21931 162.934 3.01345 166.009 1.71489C166.108 1.67304 165.763 1.44834 165.86 1.40176C165.926 1.37022 166.711 1.46111 166.798 1.42923C166.887 1.39503 166.508 1.14973 166.613 1.10146C167.154 0.852741 167.865 1.82564 166.749 1.75151C167.122 1.87175 167.495 1.992 167.868 2.11224C167.469 1.379 168.454 1.90593 168.97 1.88335C172.279 1.73903 170.064 1.26214 170.632 1.0154C171.547 0.619228 170.849 1.87402 172.207 1.49698C172.332 1.46173 170.691 0.929091 173.897 1.22964C173.423 1.25039 172.95 1.27114 172.477 1.2919C172.75 2.0011 174.186 1.24325 174.296 1.2333C175.555 1.13592 174.704 1.39159 176.573 1.02638C176.74 0.993594 177.104 1.16862 177.461 1.08132C178.941 0.721628 175.508 0.863052 175.414 0.575927C175.37 0.435239 179.061 0.470669 179.188 0.537473C179.726 0.833602 177.515 0.667903 177.936 1.03554C178.09 1.16608 183.351 0.89797 184.407 1.04103C185.625 1.20751 186.173 2.16906 186.181 1.08864C186.525 2.14917 186.828 1.42559 186.984 1.43289C188.868 1.53107 188.871 1.54177 190.487 1.44022C190.843 1.41814 191.144 1.73992 191.271 1.68559C191.344 1.65277 191.207 1.30842 191.566 1.20217C192.066 1.05682 195.069 1.411 195.292 1.60135C195.515 1.79171 194.024 1.68391 194.291 1.99688C195.371 2.02851 196.406 1.95108 197.492 1.98406C197.944 1.9987 197.712 2.21775 197.907 2.22211C197.99 2.2248 199.548 2.0319 199.482 1.9511C199.328 1.76321 194.515 1.88951 195.782 1.50614C196.027 1.43206 196.891 1.93684 196.753 1.32302C201.053 1.46219 205.352 1.60135 209.652 1.74052C207.182 2.19963 204.401 1.78903 201.814 1.83208C201.459 1.83739 200.261 1.77819 200.406 2.08843C202.607 2.16875 205.342 2.0071 207.455 2.20929C207.522 2.21598 207.274 2.49472 207.527 2.53889C208.001 2.62133 209.542 2.17177 209.801 2.28803C209.846 2.31511 208.969 2.68257 209.235 2.9161C209.92 3.51539 210.094 2.18807 210.683 2.20379C211.138 2.21652 214.197 2.8583 214.959 2.45283C215.77 2.02064 212.705 2.20192 212.931 1.84856C215.005 1.49344 217.105 1.87265 219.064 1.82841C219.099 1.82728 218.799 1.55037 219.236 1.51163C219.997 1.4442 220.197 1.83699 220.567 1.89983C220.966 1.96672 222.379 1.91043 222.568 2.05364C222.592 2.07242 222.305 2.46201 222.262 2.47297C221.647 2.63354 221.428 2.12788 221.372 2.12139C221.162 2.10222 220.955 2.2959 220.763 2.28436C220.448 2.26513 220.274 2.08594 219.857 2.07012C219.569 2.05854 219.847 2.40264 219.569 2.3869C219.468 2.37974 218.37 1.59401 218.267 2.39606C218.236 2.64894 227.214 2.97369 228.111 2.77144C227.341 2.675 226.572 2.57856 225.802 2.48212C227.365 2.71688 229.243 2.07603 229.376 3.02414C235.172 3.10165 240.969 3.17917 246.766 3.25669C247.801 3.33746 247.233 3.94672 248.936 3.7694C248.496 3.5753 248.056 3.3812 247.616 3.1871C248.489 3.32327 252.356 3.58928 252.982 3.4636C253.063 3.44713 253.176 2.89572 254.142 2.84835C255 2.80651 255.137 3.21966 255.596 3.2988C255.981 3.3641 256.413 3.25585 256.527 3.27866C256.615 3.29692 256.65 3.54956 256.861 3.59361C257.526 3.72982 256.987 3.01849 257.648 3.83532C257.487 3.86645 257.326 3.89758 257.165 3.92871C257.969 4.04693 259.066 4.41777 257.883 4.60073C257.679 4.63232 257.854 4.3879 257.702 4.38832C251.758 4.43374 256.505 4.90887 258.588 4.52932C259.123 4.89147 262.121 4.67036 262.22 4.74173C262.359 4.8451 261.846 5.13454 262.518 5.38445C262.66 5.43736 266.668 5.23457 265.225 5.71588C264.927 5.81517 263.005 5.71086 262.542 5.72504C263.632 6.49264 266.187 5.39289 266.475 5.42107C267.634 5.5407 264.248 6.0863 266.859 6.1755C268.867 6.24394 266.982 5.73141 267.754 5.51263C268.188 5.38987 270.461 5.9545 270.399 5.22331C271.179 5.14523 270.722 5.53239 270.819 5.56024C270.913 5.58472 272.447 5.36583 272.944 5.51995C273.005 5.53912 272.815 5.91917 272.877 5.95027C272.998 6.00351 274.477 5.92754 274.537 5.89533C274.575 5.87296 274.222 5.54023 274.367 5.45953C274.536 5.36648 275.959 5.44478 276.038 5.34966C276.148 5.20585 274.391 5.30059 274.684 4.9285C275.494 5.02219 276.814 4.77393 277.348 4.47438C277.217 4.56003 276.432 4.57232 276.159 4.54213C276.288 3.99718 277.974 4.0046 277.397 4.43593C277.764 4.20429 277.513 4.0814 277.72 3.86279C277.774 3.80741 278.295 3.796 278.395 3.70165C278.408 3.68285 277.871 3.47724 277.978 3.36655C278.173 3.16654 279.751 3.21153 279.881 3.26401C280.244 3.41271 278.957 3.59264 278.85 3.8225C278.835 3.8578 279.929 4.30825 279.946 4.34803C280.01 4.77487 278.792 4.46727 278.931 4.85159C279.232 4.93277 279.533 5.01395 279.835 5.09513C278.673 5.48432 276.523 5.28419 275.969 5.72687C277.692 5.59514 279.495 5.61072 279.491 6.60764C279.49 7.0275 278.746 7.27362 278.775 7.38038C278.885 7.76235 279.916 7.34739 279.954 7.36756C279.986 7.39084 280 7.4135 280 7.43556C280 7.43557 280 7.43558 280 7.43559C280 7.65923 278.529 7.82028 278.456 7.92239C278.332 8.10378 278.987 8.85042 278.986 9.01557C278.963 9.04875 277.915 9.22544 278.269 9.51364C278.626 9.80473 279.543 9.81116 279.575 9.84141C279.75 10.0155 278.147 10.1744 278.099 10.2772C278.074 10.3292 278.935 10.6487 278.96 10.7405C278.981 10.8326 278.327 11.0337 278.069 11.3246C277.877 11.5407 278.437 11.7064 278.338 11.7403C278.268 11.7627 276.753 11.7591 276.678 11.797C276.567 11.8532 276.922 12.1115 276.871 12.1761C276.797 12.269 276.308 12.1757 276.372 12.2713C276.42 12.3425 278.316 13.2329 278.304 13.4707C278.282 13.8763 276.274 12.943 278.143 14.5437C278.156 14.5542 278.611 14.4405 278.623 14.4503C278.904 14.7449 277.446 15.1979 279.229 15.1187C275.912 15.6302 278.816 15.7285 278.325 16.4115C278.136 16.674 276.85 16.7823 276.844 16.8217C276.969 17.1547 277.379 16.8964 277.518 17.0597C277.595 17.151 276.444 17.5031 276.703 17.7317C276.837 17.8496 278.058 17.8076 278.109 17.8306C278.592 18.0474 277.999 18.2809 278.105 18.4349C278.176 18.5381 278.913 18.5463 278.932 18.5649C278.963 18.6035 277.962 19.0207 277.754 19.1673C277.596 19.2801 278.19 19.4569 278.08 19.5061C277.414 19.8002 275.996 19.0501 277.362 20.1012C277.445 20.1657 277.962 20.1396 277.977 20.1525C278.297 20.4504 277.345 20.4762 277.175 20.7201C276.883 21.1404 278.25 20.9061 277.113 21.2017C277.966 21.4766 278.441 21.4651 279.439 21.3885C276.676 21.6022 275.7 22.6903 278.769 22.6629C277.793 22.646 277.901 23.2601 277.61 23.2709C277.429 23.2769 276.014 22.6663 276.662 24.0363C276.744 24.2074 277.603 23.99 277.334 24.3402C275.271 24.2509 277.29 24.5631 277.293 24.6094C277.266 25.4164 272.224 24.7555 271.358 24.8475C270.353 24.9542 269.46 25.5901 269.241 25.5909C268.522 25.5912 269.119 25.2683 268.958 25.1496C268.795 25.032 266.751 25.6505 266.649 25.6165C266.253 25.4801 266.655 25.0975 266.614 25.0782C266.123 24.8437 263.378 25.1433 262.609 25.0544C262.633 25.3026 264.176 25.3223 263.213 25.7209C262.091 26.1857 262.027 25.0915 261.997 25.0434C256.857 25.0538 251.716 25.0642 246.576 25.0745C246.64 25.6566 250.001 25.2176 250.077 25.2943C250.526 25.748 244.849 25.7397 244.152 25.5341C244.681 25.6599 245.21 25.7856 245.739 25.9114C244.836 26.5806 242.837 25.7111 241.53 26.0066C241.108 26.1024 241.918 26.3607 241.902 26.3783C241.427 26.6382 240.666 26.438 241.235 26.089C240.077 26.4234 240.246 26.0544 239.357 26.0267C239.312 26.0256 239.693 26.2956 238.99 26.4076C238.66 26.4598 236.903 26.4607 236.668 26.6969C236.571 26.7964 237.462 27.8436 237.572 26.9423C239.484 27.3817 238.183 26.5315 238.926 26.5522C239.04 26.557 238.778 27.0601 240.648 26.8233C240.291 27.7305 238.138 27.0521 237.769 27.162C237.008 27.3879 240.145 27.8564 240.72 27.1492C240.451 27.8572 240.943 27.2446 241.642 27.2737C242.407 27.3053 242.074 27.5161 242.488 27.5173C243.621 27.5225 243.151 27.0228 244.085 27.4733C243.174 26.0785 245.683 27.2893 246.414 27.6546C245.225 27.7254 244.035 27.7962 242.846 27.867C242.914 27.9402 242.982 28.0135 243.05 28.0867C242.736 28.0764 242.423 28.066 242.11 28.0556C242.16 27.9854 242.21 27.9152 242.26 27.845C240.645 28.3014 240.251 27.7885 240.119 27.7828C238.423 27.7233 236.464 27.7277 234.749 27.726C234.492 27.7257 234.669 28.1823 232.794 27.8249C232.196 27.7111 232.76 27.3559 232.082 27.4092C231.234 28.3743 231.25 27.6045 230.998 27.6033C230.275 27.6034 229.832 27.8425 229.766 27.845C228.872 27.8823 227.562 27.8424 226.58 27.878C226.562 27.8816 227.073 28.1781 226.435 28.0904C226.211 28.0591 224.202 26.7934 222.446 27.206C222.903 27.2914 223.359 27.3769 223.816 27.4623C223.279 27.3429 219.515 27.6619 220.436 28.0007C221 28.2077 222.377 27.3919 222.528 28.1765C221.276 27.9417 214.358 28.2928 213.82 28.1105C213.745 28.0845 214.203 27.83 214.101 27.7974C214.021 27.7726 212.436 27.8329 212.226 27.7352C212.101 27.6771 212.801 27.5211 212.744 27.4294C212.694 27.364 210.715 27.255 210.602 27.574C211.088 27.4459 212.454 27.5578 211.738 27.8267C211.646 27.8601 211.168 27.6543 211.056 27.6967C210.018 28.0876 213.121 27.9938 213.602 27.997C211.652 28.4035 208.637 27.9243 206.378 28.1893C205.465 27.9237 207.731 27.783 206.699 27.563C204.556 27.107 206.128 27.9302 206.062 27.964C205.53 28.232 203.717 26.7961 203.716 27.889C202.94 27.7245 203.191 27.5867 202.095 27.7297C202.239 27.8054 202.383 27.881 202.528 27.9567C201.311 28.5898 198.735 26.9927 198.928 26.8709C199.447 26.5448 200.788 27.0534 200.903 27.0412C201.073 27.0231 201.541 25.9141 203.397 26.9057C204.157 26.1619 200.456 26.4037 202.14 25.8967C201.002 25.9799 196.323 25.4622 195.65 25.7887C195.57 25.8313 195.944 26.5724 194.788 26.1952C194.239 26.0156 195.562 26.0069 195.311 25.8381C194.539 25.32 184.03 25.6514 182.034 25.6788C181.904 25.6796 181.952 25.4496 181.824 25.4517C181.433 25.4582 180.008 25.8011 179.308 25.6953C180.758 26.121 177.941 26.1541 177.225 26.1073C176.137 26.036 176.205 25.6312 175.735 25.5451C173.924 25.2134 171.118 26.1743 169.712 25.276C169.789 26.1676 167.279 24.8388 166.137 24.831C165.242 24.8246 163.945 25.4146 165.152 25.774C163.608 25.733 161.983 25.8993 160.534 25.9535C160.295 25.9626 160.625 25.6989 160.216 25.7228C160.179 25.7268 160.128 25.9852 159.777 26.0121C156.882 26.2373 158.291 25.6882 157.749 25.5268C157.446 25.4364 157.222 25.3915 157.058 25.3767C158.745 25.3262 160.692 25.2247 161.213 25.2174C160.769 24.6468 157.472 25.3269 156.507 25.1734C156.473 25.1678 156.59 24.8534 156.556 24.8511C156.555 24.8511 156.554 24.8511 156.554 24.8511C156.192 24.827 153.887 24.9431 154.362 25.3181C154.489 25.4183 155.55 25.4181 156.808 25.384C156.467 25.4543 156.722 25.8066 156.661 25.8216C155.933 25.9958 154.148 25.6519 153.515 25.6056C153.37 25.5954 153.38 25.8211 153.357 25.8216C152.781 25.7704 153.017 25.1259 152.426 25.7905C151.384 24.9873 154.381 25.6713 154.17 25.1496C154.007 24.748 147.35 24.9637 147.37 25.5964C147.347 25.5287 147.255 25.4448 147.068 25.3492C146.651 25.1369 144.798 25.2033 144.479 25.3199C144.425 25.3429 144.446 25.957 144.379 25.9626C144.212 25.9767 141.947 25.4953 141.101 25.8583C141.558 25.9443 142.015 26.0304 142.472 26.1164C139.713 26.1218 140.139 26.3045 141.058 26.4882C141.104 26.4898 141.149 26.5131 141.193 26.5156C141.905 26.6514 142.819 26.7822 142.833 26.8306C142.885 27.0154 138.205 27.1183 139.105 26.5486C139.23 26.4707 141.396 26.7244 140.324 26.3179C140.136 26.2467 138.745 26.3627 138.672 26.3179C138.183 26.02 141.22 25.6242 140.849 25.2009C140.112 25.6039 139.166 25.3917 138.321 25.4957C137.936 25.5427 137.842 25.8506 137.794 25.8564C137.085 25.9368 137.483 25.614 137.246 25.622C137.119 25.6276 135.722 26.3147 135.986 25.3675C131.381 26.0643 134.712 26.0636 137.537 26.0102C136.644 26.3552 134.894 26.1884 134.109 26.2684C133.828 26.2975 133.994 26.6136 133.519 26.6768C132.539 26.8068 127.862 26.4437 126.644 26.3582C127.392 26.2465 127.174 25.9022 126.596 25.926C126.018 25.95 126.504 26.4095 126.391 26.4589C126.27 26.51 123.561 26.2931 123.11 26.3527C125.15 26.1862 124.689 25.8429 122.958 25.807C123.208 25.7081 123.459 25.6092 123.709 25.5103C122.694 25.6493 120.56 25.1256 119.974 25.2815C119.882 25.3065 120.212 25.5952 120.161 25.6092C119.646 25.7319 117.895 25.4375 117.814 25.536C117.745 25.618 118.492 25.86 118.215 25.9791C118.157 26.0042 117.437 25.614 116.728 25.7099C116.465 25.7452 116.623 26.0182 116.557 26.0341C116.005 26.1654 116.33 25.7057 115.321 25.7795C114.581 25.8342 114.031 26.2836 113.009 26.1348C116.364 26.7077 113.543 26.4684 112.14 26.642C111.915 26.6697 112.108 27.1653 110.764 26.924C113.624 26.0279 109.949 26.4503 109.198 26.4406C109.156 26.4375 109.142 26.1107 108.773 26.1055C108.742 26.1058 108.787 26.3266 108.444 26.3435C105.195 26.5032 107.273 26.2537 106.655 26.0359C106.392 25.9431 104.812 26.2554 104.387 26.2629C104.289 26.2637 104.334 26.0342 103.955 26.0432C103.285 26.0597 102.685 26.304 102.243 26.3234C102.191 26.3245 102.189 25.9624 101.351 26.0798C101.115 26.1127 100.851 26.2412 101.186 26.3453C102.296 26.6878 104.401 26.0951 105.656 26.4369C106.8 26.7482 103.192 26.7775 103.005 26.7793C102.936 26.7805 103.64 26.6007 102.924 26.5651C102.313 26.5355 101.196 27.1609 100.285 27.0247C100.216 27.0146 99.4879 26.4843 99.5214 26.4534C99.5519 26.4308 100.67 26.3157 100.507 26.1622C100.488 26.1447 99.7776 26.1483 99.6848 26.0341C99.5713 25.895 99.2651 24.5301 99.1134 24.4959C98.7241 24.4114 98.9775 24.7226 98.7257 24.701C98.1857 24.6553 96.3128 24.2517 96.2519 24.7248C96.5613 24.7529 96.8707 24.781 97.1801 24.809C95.4587 24.8577 96.1924 25.0591 95.9486 25.1478C95.686 25.2438 95.7598 24.8279 95.1795 24.7889C95.0533 24.7803 92.6253 24.8671 92.6694 25.0416C94.0122 24.7639 93.5143 25.2778 93.5763 25.287C93.8115 25.3204 94.112 25.0322 94.4276 25.0379C96.6475 25.083 94.4087 25.538 94.9328 25.655C95.1132 25.6944 95.4725 25.4483 95.5491 25.4609C95.7978 25.5017 95.8019 25.8239 95.9678 25.7978C96.355 25.7374 95.903 25.2814 95.9336 25.2577C96.2795 24.9723 97.6353 25.3273 96.7913 25.8235C97.2979 26.0023 97.3573 25.3993 97.759 25.6404C98.5577 26.1177 97.3612 25.9951 97.037 26.0743C95.874 26.3602 95.529 26.1288 93.8828 26.208C93.29 26.236 92.5877 26.5289 92.3127 26.5449C92.1394 26.555 90.5034 25.536 90.4552 27.1309C89.8192 26.9766 88.8215 25.9256 88.1663 25.9736C87.578 26.0175 87.7651 26.5817 87.7102 26.6035C87.626 26.6378 86.9147 26.5934 86.6741 26.6731C86.3922 26.7673 86.5329 26.9827 86.0856 27.0705C84.9724 27.2883 85.0016 26.7124 84.8871 26.6749C83.5588 26.2423 84.1404 27.0615 83.8457 27.1272C83.5716 27.1876 79.7267 26.8723 78.9174 27.0796C79.2468 26.9643 79.5761 26.8489 79.9054 26.7335C79.3161 26.3743 78.6913 26.9603 78.6803 26.316C78.5607 27.3561 77.3442 26.6609 76.9788 26.6878C76.8348 26.6988 76.8461 26.8761 76.6658 26.8837C75.9617 26.9148 74.3742 26.7737 73.9923 26.8636C72.3407 27.2505 76.564 27.8941 76.8965 27.9329C76.231 27.9215 72.4655 28.1544 74.1963 28.6544C74.4639 28.7315 74.938 28.2661 75.0882 28.2479C76.1053 28.1281 75.3054 28.5451 75.3852 28.5848C75.5207 28.6488 76.1901 28.2456 76.3668 28.2937C76.4257 28.3091 76.0462 28.6867 77.0162 28.6947C76.5391 29.0608 73.8128 28.7625 73.4551 28.8485C73.3276 28.8792 74.1263 29.6616 71.7931 28.9016C71.8201 28.9742 71.8472 29.0469 71.8743 29.1195C70.5751 29.1494 69.2759 29.1793 67.9767 29.2092C68.1179 29.0419 68.8474 28.7058 67.9286 28.7771C67.3997 28.8184 67.791 29.1911 67.7428 29.2019C67.2681 29.3045 58.867 29.1805 57.2389 29.222C56.6851 29.2355 55.1413 29.5351 55.0236 29.5407C54.3198 29.5706 51.8273 29.3757 51.3301 29.418C51.0196 29.4451 51.3148 29.7567 51.0374 29.7421C50.7796 29.7281 51.0467 29.4269 50.9701 29.4143C50.3358 29.3052 45.5176 29.7002 44.3734 29.4161C45.0727 29.5014 48.5622 28.8997 48.4921 28.6874C48.4769 28.6582 47.6288 28.4291 47.4539 28.5409C47.1648 28.2801 46.1725 29.074 45.6327 28.9181C45.5717 28.9004 45.8121 28.4551 44.8487 28.3742C44.5169 28.3466 43.6479 28.6937 42.7734 28.3047C41.5073 28.4916 34.8507 27.9141 34.394 28.3925C34.3805 28.4178 35.3178 28.5826 34.6845 28.7789C33.8426 29.0399 34.5987 28.1608 33.6175 28.0849C33.4696 28.0734 30.7396 28.1623 30.6502 28.2168C29.8234 28.7102 32.2089 28.9102 32.1755 28.9675C32.0923 29.112 30.1102 29.1993 30.0297 29.1653C29.953 29.1298 31.5695 28.4761 29.627 28.724C29.8495 28.8021 30.072 28.8802 30.2946 28.9584C29.381 29.1105 29.2939 28.6582 29.0726 28.6306C28.3846 28.5431 27.6403 29.2301 26.538 28.3816C26.2465 28.1564 26.7304 27.9063 26.6939 27.8725C26.3438 27.5694 25.8971 28.3802 25.3705 27.7755C25.3309 27.7303 26.5562 27.368 24.4146 27.3671C24.562 27.4251 24.7094 27.4831 24.8568 27.5411C24.5548 27.6705 22.3863 27.7475 22.0946 27.7169C21.2424 27.6274 21.9856 27.2112 21.129 27.2609C21.6784 27.8314 19.0737 27.9058 19.2235 27.4147C18.8597 28.0315 16.647 27.5557 15.6069 27.5411C14.9506 27.5323 13.6119 27.8014 13.4033 27.77C13.1493 27.7314 13.2265 27.3106 12.7678 27.217C12.637 27.1903 11.2715 27.4987 10.0729 27.0632C9.84065 26.9792 9.35281 26.2655 9.78455 26.0872C10.5235 25.7819 11.9215 26.3569 11.9037 25.9352C11.8827 25.484 9.99978 25.7523 9.49296 25.6935C7.1531 25.4212 8.50424 24.9416 8.44406 24.7962C8.28802 24.4434 7.00952 24.4544 6.95618 24.4227C6.73508 24.2818 7.64105 24.0026 7.65472 23.7873C7.67123 23.5069 6.43889 23.001 6.71905 22.9065C7.12009 22.7723 8.25262 23.194 8.32443 23.1738C9.25914 22.9019 7.97792 22.2542 7.62482 21.936C7.51778 21.8381 7.94428 21.6772 7.85553 21.6485C6.50077 21.2129 7.56995 22.5588 6.66885 22.4689C5.86489 22.3887 6.8993 21.9631 6.86859 21.9397C6.8289 21.9139 5.86764 21.8907 5.71716 21.7401C5.643 21.6647 8.14145 20.8368 8.03711 20.4656C7.23994 20.5474 6.44277 20.6292 5.64559 20.711C5.5831 20.227 6.7297 20.5833 6.8483 20.5334C7.08704 20.4332 6.42131 20.1883 6.44989 20.0353C6.46522 19.938 7.24656 19.5907 6.54068 19.4475C6.29808 19.3981 5.78896 19.7374 4.90539 19.3907C7.98034 18.948 5.84945 18.6759 5.75881 18.5045C5.67003 18.3331 7.13803 17.9296 5.35613 18.0009C5.27888 17.059 5.39455 17.7032 5.90087 17.5376C6.52114 17.3342 5.08758 17.024 7.35458 17.2593C7.22561 16.8183 5.40347 16.8495 5.307 16.8144C5.2237 16.7825 5.62873 16.5656 5.48431 16.4921C3.77611 15.64 4.94938 16.0291 4.45464 15.485C4.41064 15.4363 2.79612 15.2346 4.02526 15.1554C6.26456 15.0113 7.20044 15.6362 7.57675 14.3002C5.92041 13.7199 3.91352 14.5822 3.41002 14.5969C2.63935 14.6179 3.4377 14.3454 3.34273 14.2691C3.30975 14.2444 2.64563 14.2669 2.63671 14.2453C2.16315 13.2263 5.59321 14.2284 6.67312 14.0512C6.38366 13.8986 6.0942 13.746 5.80474 13.5934C6.19745 13.5873 6.59017 13.5812 6.98288 13.5751C5.112 13.2684 6.91692 13.459 7.38342 12.6339C7.48815 12.4485 6.25906 12.7664 7.66113 12.2512C6.62703 12.1322 6.95687 11.9637 6.0205 12.1963C6.04467 11.8655 8.15143 11.4925 8.98239 11.3228C6.04683 10.9512 7.72088 12.1642 5.1831 11.5224C4.7125 11.9319 5.92381 11.8522 5.82504 11.9198C5.47065 12.1628 4.63987 11.7769 3.63753 12.6284C3.47433 12.7682 4.16491 13.1985 3.14299 13.1777C3.02997 13.1748 2.37881 12.807 2.38783 12.7804C2.47416 12.4924 3.11853 12.6003 3.14513 12.4801C3.17009 12.3663 2.4512 12.4347 2.44872 12.4032C2.42663 12.0424 3.04854 12.2653 2.95821 12.1523C2.76314 11.9066 0.177276 11.1302 3.55208 11.3576C0.748946 11.7655 3.19319 11.756 4.28481 11.5993C4.56319 11.56 4.63369 11.3445 5.03036 11.2697C5.5406 11.1728 6.1378 11.2763 6.40182 11.2367C6.68578 11.1931 5.07234 10.6837 7.40585 10.8357C6.21826 10.329 4.12052 10.8693 2.95394 10.5135C0.600308 9.79447 4.59499 9.6401 5.01113 9.57042C5.122 9.55155 4.75031 9.26048 4.82421 9.24265C4.94507 9.2153 7.21221 9.34984 7.43576 9.10898C7.6587 8.86833 6.60535 9.12007 6.53534 8.8691C6.48787 8.70014 9.22285 8.40045 7.74231 8.28497C6.72186 8.20581 4.8409 8.8849 4.52407 8.15496C6.02477 8.09454 7.52548 8.03411 9.02619 7.97368C8.2048 7.69596 7.38342 7.41824 6.56204 7.14052C8.24642 7.05245 9.70257 7.36599 11.3023 6.9684C7.45815 6.07847 12.5505 6.25819 12.6065 6.14988C12.6253 6.08511 11.1121 5.36278 10.8687 5.23066C12.2095 4.95278 16.2836 4.81699 13.9 3.92507C14.3326 4.12646 15.3804 3.62933 15.3665 3.5918C15.2335 3.19777 12.9484 3.45328 13.3211 3.0974C13.753 2.68441 14.3582 3.24469 15.0226 3.19994C18.4321 2.96668 17.4967 0.909645 20.9154 1.23515C20.8474 1.1619 20.7794 1.08866 20.7114 1.01541C24.4274 1.13199 28.1434 1.24857 31.8593 1.36515C33.3132 0.736976 37.1826 0.354457 39.083 0.423955C39.4657 0.437491 41.3445 0.767173 41.4863 0.824971C41.7488 0.935743 40.3052 0.97801 40.9576 1.1857C41.0953 1.22833 44.2762 1.36686 44.0487 1.01541C43.6923 0.97466 42.5768 1.15132 42.3942 1.06851C41.1117 0.477428 50.918 0.949639 51.4038 0.711441C51.1866 0.597301 50.9694 0.483161 50.7522 0.369021C51.371 0.425175 51.9898 0.48133 52.6086 0.537484ZM24.1742 28.7643C23.8029 29.1169 22.8721 28.8521 22.3221 28.951C21.5623 29.0897 20.2706 30.4476 20.8268 29.0865C21.9426 28.9791 23.0584 28.8717 24.1742 28.7643ZM40.4823 29.2898C39.734 29.1004 40.3144 28.3402 40.9277 28.6562C40.9957 28.6921 41.4946 29.5447 40.4823 29.2898ZM32.638 28.9291C32.6695 28.919 33.3161 28.9391 33.3387 28.951C33.9186 29.2562 31.9691 29.1939 32.638 28.9291ZM70.5316 28.539C69.7072 28.5718 70.3042 29.2629 70.8168 28.9785C70.849 28.9604 70.5859 28.5374 70.5316 28.539ZM69.9452 28.5207C69.3049 27.9019 68.0153 29.1561 69.0405 29.0298C69.14 29.017 69.9749 28.5509 69.9452 28.5207ZM37.8152 28.9877C37.8994 28.7505 38.6712 28.865 39.0008 28.9217C38.9918 29.1383 38.1384 28.9612 37.8152 28.9877ZM57.3842 28.9217C57.4169 28.7353 54.7342 28.7456 54.5515 28.9913C54.9749 28.8871 57.3533 29.0893 57.3842 28.9217ZM64.2639 28.6599C64.1959 28.6277 63.2692 28.6767 63.2962 28.8412C63.7486 29.057 64.5701 28.8058 64.2639 28.6599ZM77.938 28.6709C77.9883 28.6295 77.2942 27.5826 78.9388 28.2717C79.1802 28.3726 78.3179 28.6461 78.4037 28.6837C78.5834 28.757 78.7254 28.7911 78.8395 28.7972C78.0735 28.884 77.2779 28.9248 77.201 28.8613C76.8396 28.5614 77.9157 28.6881 77.938 28.6709ZM85.1168 27.8908C85.2746 27.7201 86.2824 27.8113 86.5117 27.8817C86.5511 27.8949 86.3795 28.3437 86.8332 28.3101C87.1976 28.2824 86.6534 27.8227 87.363 27.8963C88.0803 27.9701 87.122 28.2977 87.1847 28.3211C87.2686 28.3518 88.3781 28.1454 88.3436 28.4127C88.3178 28.6107 87.1293 28.4768 86.8354 28.5189C86.4591 28.573 86.9154 28.9029 86.2864 28.832C85.8911 28.7878 86.1102 28.2076 86.0268 28.1783C85.9569 28.1547 84.5753 28.4886 85.1189 27.8926C85.1182 27.892 85.1175 27.8914 85.1168 27.8908ZM79.0467 28.7716C78.989 28.7912 78.9213 28.8016 78.8395 28.7972C78.909 28.7893 78.9782 28.7802 79.0467 28.7716ZM26.3361 28.5097C26.7251 28.6887 25.5706 28.9181 25.1334 28.6837C25.1258 28.4947 26.2742 28.4819 26.3361 28.5097ZM79.757 28.2992C80.8947 28.4445 80.0579 28.6444 79.0467 28.7716C79.3677 28.6624 79.3749 28.2506 79.757 28.2992ZM47.4539 28.5409C47.5018 28.5841 47.5323 28.6516 47.5361 28.7624C47.41 28.6412 47.3987 28.5761 47.4539 28.5409ZM50.1081 28.7386C51.0181 28.401 49.1693 28.4146 49.181 28.6562C49.1865 28.7474 50.0717 28.7521 50.1081 28.7386ZM71.5891 28.572C71.5058 28.539 72.7989 27.5195 70.9215 28.2845C71.9235 28.4047 70.8663 28.5157 70.882 28.605C70.9229 28.8616 72.606 28.6149 72.9787 28.7258C73.2705 28.2667 71.8639 28.6808 71.5912 28.572C71.5905 28.572 71.5898 28.572 71.5891 28.572ZM98.0549 28.138C97.8268 28.407 97.1033 28.3205 96.6151 28.3046C96.8431 28.0356 97.5667 28.1222 98.0549 28.138ZM225.816 28.1765C222.47 28.4252 222.037 27.3296 225.098 27.7626C225.158 27.7717 226.019 28.0654 225.816 28.1765ZM197.105 27.8926C196.789 27.4151 197.833 27.3384 198.518 27.5356C198.673 27.5799 199.246 28.0636 198.591 28.1581C198.612 27.5794 197.6 27.3583 197.105 27.8926ZM80.4 27.9934C80.7313 27.6749 81.7511 27.9016 82.2884 27.9494C81.9605 28.2116 80.8751 28.093 80.4 27.9934ZM214.823 27.6051C214.47 27.569 214.232 27.9844 214.293 28.019C214.565 28.1775 215.224 27.8416 214.823 27.6051ZM77.108 27.9439C77.0614 27.7536 78.4122 27.5705 78.5062 28.041C78.2174 28.0069 77.1415 28.0633 77.108 27.9439ZM97.1342 27.9952C96.9245 27.8984 98.0105 27.7252 98.339 27.8212C98.3126 28.0238 97.2717 28.0581 97.1342 27.9952ZM209.146 27.7461C208.83 27.7101 208.041 27.6991 207.954 27.867C207.845 28.0769 209.002 28.0054 209.146 27.7461ZM267.898 27.3836C267.938 27.459 266.717 28.0028 266.173 27.8652C265.142 27.6019 267.855 27.3303 267.898 27.3836ZM218.16 27.3909C219.156 27.786 218.051 27.4034 218.094 27.8194C218.764 27.8344 220.431 27.8549 219.285 27.4458C219.062 27.3667 218.473 27.4178 218.16 27.3909ZM217.242 27.2517C217.135 27.3865 216.417 27.8114 217.038 27.7809C217.325 27.7662 217.787 27.2941 217.242 27.2517ZM260.329 27.5685C259.436 27.2002 263.528 27.3978 263.645 27.4623C263.707 27.4964 263.748 27.5285 263.771 27.5557C263.922 27.439 264.694 27.4179 264.784 27.7132C264.552 27.6888 263.92 27.7148 263.846 27.6821C263.814 27.6681 263.791 27.6551 263.774 27.6418C263.502 27.8981 260.5 27.6384 260.329 27.5685ZM253.549 27.1895C254.571 26.6461 254.751 27.5699 254.663 27.5997C253.552 27.9777 254.277 27.2965 254.243 27.2646C254.165 27.2115 253.375 27.5276 253.553 27.1895C253.552 27.1895 253.55 27.1895 253.549 27.1895ZM258.939 27.4165C258.981 27.4045 259.838 27.4331 259.874 27.4477C260.576 27.7581 258.15 27.6786 258.939 27.4165ZM90.5279 27.2444C91.1417 27.3363 90.5396 27.6761 90.1316 27.5539C90.0981 27.5418 89.9863 27.1633 90.5279 27.2444ZM216.752 27.3433C216.609 27.2791 212.969 27.0369 213.187 27.5502C213.496 27.4896 217.635 27.7538 216.752 27.3433ZM189.543 27.2188C190.185 27.2228 189.486 27.7069 189.143 27.5264C189.016 27.4594 189.382 27.2181 189.543 27.2188ZM75.2869 27.5044C74.6203 27.7704 74.7581 26.8782 75.336 27.184C75.3587 27.196 75.313 27.4941 75.2869 27.5044ZM194.673 27.4971C192.458 27.7905 192.983 26.2557 195.861 26.7738C195.771 26.8422 195.681 26.9105 195.591 26.9789C198.914 27.2091 195.818 27.0871 195.005 27.173C194.696 27.2057 194.955 27.4619 194.675 27.4989C194.674 27.4983 194.673 27.4977 194.673 27.4971ZM186.167 27.1895C184.035 26.1001 188.106 26.8095 189.273 26.6676C188.141 27.1175 186.668 27.0494 188.672 27.5099C185.741 27.599 186.961 27.1651 186.844 27.1291C186.706 27.0886 186.258 27.2363 186.167 27.1895ZM191.792 27.1822C191.915 27.1504 192.844 27.3721 193.178 27.336C192.71 27.7081 190.974 27.3983 191.792 27.1822ZM246.442 27.4422C246.519 27.1506 246.71 26.9358 247.443 27.0448C247.216 27.1913 246.748 27.3173 246.442 27.4422ZM23.4693 27.2298C22.9645 27.2089 21.9594 27.099 22.2676 27.4056C22.3014 27.4317 23.4677 27.4018 23.4693 27.2298ZM206.177 27.1071C206.07 27.0712 203.294 27.0472 204.253 27.3689C204.542 27.466 207.068 27.4248 206.177 27.1071ZM220.554 27.1437C220.322 27.1407 219.378 27.1956 219.358 27.2646C219.294 27.503 220.453 27.3719 220.554 27.1437ZM20.9229 26.9313C20.8564 26.9011 19.3146 26.9546 19.4841 27.0961C19.8058 27.3636 21.1507 27.0355 20.9229 26.9313ZM92.7613 26.5614C92.8902 26.5506 93.0606 26.8674 93.1052 26.8709C93.21 26.8754 95.5692 26.7536 94.6679 27.1602C94.5175 27.2283 91.1232 27.0722 90.6817 27.032C90.5109 26.5972 91.9609 27.0108 92.3138 26.9661C92.3759 26.9576 92.4157 26.5938 92.7602 26.5632C92.7606 26.5626 92.7609 26.562 92.7613 26.5614ZM250.261 27.1345C250.365 26.8581 253.138 26.6751 253.106 27.01C252.158 27.0515 251.209 27.093 250.261 27.1345ZM248.852 27.0888C248.26 26.8932 249.646 26.8285 250.054 26.9148C250.059 27.1008 248.938 27.1174 248.852 27.0888ZM215.294 26.1109C215.015 26.1786 215.872 26.5819 215.68 26.6603C215.557 26.7091 214.935 26.5579 214.736 26.6841C214.68 26.7242 215.315 27.1033 215.499 27.0869C215.76 27.0651 215.507 26.7667 215.791 26.7647C216.737 26.7582 217.575 26.971 218.462 26.9661C218.542 26.9651 217.921 26.7544 218.604 26.7573C218.709 26.7574 219.343 27.0712 220.16 27.0247C221.964 26.0528 223.288 27.0071 225.578 26.6566C225.491 26.5651 223.779 26.3196 223.678 26.3105C221.765 26.1507 218.337 26.1332 216.333 26.1311C215.819 26.1303 216.068 26.336 215.847 26.3435C215.672 26.3491 215.88 25.9682 215.294 26.1109ZM23.7374 27.0192C23.4968 26.6388 22.6529 26.8795 22.1138 26.8599C22.3036 27.2031 23.2106 26.9349 23.7374 27.0192ZM236.4 26.794C236.129 26.8086 235.292 26.6941 235.223 26.8086C235.133 26.9582 236.342 27.0525 236.4 26.794ZM106.064 26.6695C106.09 26.6591 106.74 26.6794 106.764 26.6914C107.345 26.9968 105.395 26.9342 106.064 26.6695ZM121.612 26.7427C122.105 26.6957 122.602 26.5768 122.768 26.8855C122.454 26.8383 121.554 26.9577 121.612 26.7427ZM143.063 26.7335C142.961 26.3293 144.445 26.5911 144.725 26.6273C144.621 26.807 143.138 27.0248 143.063 26.7335ZM246.335 26.1732C247.242 26.1971 247.051 25.5848 247.627 25.8619C247.721 25.9088 248.024 27.1838 247.027 26.7061C246.848 26.6202 247.55 26.3172 246.335 26.1732ZM196.33 26.7866C196.561 26.5192 197.282 26.5986 197.769 26.62C197.66 26.8187 196.677 26.7676 196.33 26.7866ZM18.1383 26.6255C17.7129 26.248 15.7475 26.528 16.2338 26.7775C16.303 26.81 17.8626 26.6112 18.1383 26.6255ZM82.706 26.7738C83.5147 26.4765 81.8398 26.3845 81.3111 26.6749C81.5505 26.6559 82.6515 26.7934 82.706 26.7738ZM137.911 26.5138C137.949 26.5016 138.807 26.5303 138.845 26.5449C139.548 26.8554 137.122 26.7759 137.911 26.5138ZM116.499 26.252C116.808 26.0073 118.839 26.2047 119.294 26.4497C118.856 26.8075 116.116 26.5575 116.499 26.252ZM242.603 26.3472C243.25 26.3345 243.864 26.4098 244.459 26.5156C244.334 26.7216 242.672 26.501 242.603 26.3472ZM141.058 26.4882C141.104 26.4898 141.149 26.5131 141.193 26.5156C141.147 26.5069 141.102 26.4969 141.058 26.4882ZM228.121 26.2025C227.579 26.1211 227.691 26.4986 227.724 26.5101C228.132 26.6324 228.735 26.2943 228.121 26.2025ZM23.1179 26.4589C22.9299 26.1183 22.0179 26.3825 21.4933 26.3014C21.6455 26.5704 22.6953 26.4946 23.1179 26.4589ZM183.884 26.4918C183.202 26.1225 185.974 25.6935 186.558 25.9315C186.601 26.1597 183.983 26.5424 183.884 26.4918ZM80.1949 26.2629C80.1405 25.996 78.9767 26.3181 79.224 26.4442C79.3806 26.5245 80.2274 26.4288 80.1949 26.2629ZM187.952 26.0871C188.212 26.0057 188.819 26.2691 188.606 26.4296C188.331 26.6353 187.885 26.1105 187.952 26.0871ZM211.317 25.8729C211.203 25.8321 209.672 26.1061 210.304 26.3783C210.743 26.5675 210.813 26.1817 210.917 26.1805C211.032 26.1818 213.49 26.6539 211.317 25.8729ZM168.359 26.2593C168.937 26.1567 169.636 26.2758 170.24 26.2684C169.994 26.4335 168.605 26.4785 168.359 26.2593ZM84.6831 26.1915C84.5428 26.0836 80.7205 26.0186 82.8919 26.3508C83.0185 26.3696 85.1093 26.5184 84.6831 26.1915ZM246.335 26.1732C246.221 26.1702 246.089 26.1575 245.936 26.1311C246.088 26.1415 246.22 26.1596 246.335 26.1732ZM236.034 26.1329C236.243 25.9386 235.191 25.8867 234.881 25.9901C234.785 26.2275 236.006 26.1601 236.034 26.1329ZM170.286 25.9974C170.635 25.8862 171.267 26.0049 171.698 25.9919C171.625 26.1725 170.437 26.1809 170.286 25.9974ZM145.821 25.7942C146.513 25.9015 147.364 25.8521 147.377 25.6312C147.392 25.6657 147.425 25.7024 147.481 25.7392C147.537 25.7757 148.278 25.673 148.6 25.7484C150.528 26.1963 141.156 26.0115 146.588 25.3877C146.332 25.5232 146.077 25.6587 145.821 25.7942ZM113.751 25.7319C113.358 25.463 112.259 25.8 112.544 25.9059C112.743 25.9784 114.144 26.0027 113.751 25.7319ZM128.86 25.5726C128.743 25.5246 127.669 25.713 127.642 25.8546C128.259 26.0038 129.395 25.7956 128.86 25.5726ZM110.732 25.417C110.486 25.3764 110.171 25.81 110.2 25.829C110.451 25.9873 111.146 25.6584 110.732 25.417ZM244.456 25.0049C244.09 24.8808 242.921 25.1947 242.666 25.481C242.619 25.4257 242.491 25.3535 242.257 25.2668C242.258 25.2668 242.259 25.2668 242.259 25.2668C241.943 25.1511 232.496 25.0247 238.833 25.5763C239.031 25.5939 238.76 25.3369 239.568 25.3822C239.621 25.3855 239.648 25.5953 239.812 25.6056C240.192 25.6277 242.211 25.7598 242.617 25.5909C242.621 25.6298 242.647 25.6668 242.703 25.7008C243.2 26.0035 244.741 25.1007 244.456 25.0049ZM130.989 25.5342C130.773 25.4564 130.089 25.5302 130.018 25.7154C130.358 25.8062 131.491 25.7156 130.989 25.5342ZM84.5646 25.4316C84.1243 25.2793 83.0087 25.5641 83.3458 25.7154C83.5526 25.8086 85.0723 25.6065 84.5646 25.4316ZM124.138 25.633C126.663 25.852 124.741 25.6153 125.127 25.3437C124.798 25.4402 124.468 25.5366 124.138 25.633ZM256.14 25.7063C255.737 25.6438 256.21 25.1078 256.653 25.3986C256.792 25.491 256.365 25.7402 256.14 25.7063ZM274.316 25.5396C273.972 25.0644 275.65 25.3436 274.996 25.6696C274.966 25.6806 274.34 25.5577 274.316 25.5396ZM261.615 25.3455C261.342 25.6691 261.164 25.7075 260.394 25.6275C261.533 25.5364 260.477 25.2502 261.615 25.3455ZM147.37 25.5964C147.374 25.6095 147.378 25.6192 147.377 25.6312C147.372 25.6193 147.37 25.608 147.37 25.5964ZM108.359 25.5012C108.043 25.2271 107.157 25.2473 107.421 25.5232C107.447 25.5487 108.23 25.7037 108.359 25.5012ZM242.666 25.481C242.708 25.5301 242.687 25.5619 242.617 25.5909C242.614 25.5543 242.632 25.5197 242.666 25.481ZM113.114 25.2778C113.083 25.4823 114.431 25.5618 114.485 25.5378C115.258 25.1832 113.671 25.2655 113.114 25.2778ZM75.6522 25.1441C75.5827 25.1655 76.031 25.6934 76.3059 25.4865C76.5187 25.3261 75.9126 25.0629 75.6522 25.1441ZM264.228 25.2137C264.655 25.2141 265.256 25.2138 265.367 25.4646C265.081 25.4261 264.22 25.3977 264.228 25.2137ZM273.659 25.1954C273.154 25.4902 272.002 25.4893 271.266 25.4408C271.253 25.0527 273.185 25.2866 273.659 25.1954ZM245.614 25.1496C245.579 25.1338 244.509 25.018 244.655 25.2778C244.869 25.6587 245.916 25.2909 245.614 25.1496ZM77.7307 25.4243C78.2094 25.2454 77.1079 24.6957 76.6028 25.1203C76.3435 25.3378 77.65 25.4543 77.7307 25.4243ZM105.594 25.1423C104.962 25.2926 106.528 25.5604 106.746 25.2888C106.455 25.267 105.818 25.0891 105.594 25.1423ZM127.085 24.8676C125.095 24.0843 126.179 25.5133 126.532 25.3877C126.582 25.3697 127.134 24.886 127.085 24.8676ZM13.1993 25.0599C12.9175 25.1687 13.9681 25.563 14.104 25.3034C14.188 25.141 13.3795 24.9905 13.1993 25.0599ZM157.058 25.3767C156.974 25.3792 156.89 25.3818 156.808 25.384C156.87 25.3712 156.951 25.367 157.058 25.3767ZM99.86 24.0931C101.261 25.199 101.114 24.3466 101.236 24.3512C101.499 24.3632 102.11 24.6622 102.606 24.6131C102.038 24.7376 101.47 24.8621 100.902 24.9866C101.351 25.0665 105.248 25.4736 105.33 25.2943C105.447 25.0389 104.221 25.119 104.185 25.0965C104.133 25.0645 103.942 24.3544 103.828 24.3274C103.641 24.2843 100.382 24.2696 99.86 24.0931ZM122.923 24.9903C123.243 25.0747 123.334 25.356 123.483 25.2888C123.533 25.2658 123.541 24.9975 123.714 24.9281C123.45 24.9488 123.187 24.9696 122.923 24.9903ZM97.351 25.0874C96.9544 24.7595 98.7328 24.884 98.7898 24.9207C99.0939 25.143 97.6751 25.3552 97.351 25.0874ZM112.441 25.0398C112.376 25.0206 111.011 24.9182 111.022 25.1002C111.383 25.2389 113.209 25.2793 112.441 25.0398ZM123.928 24.9097C124.408 24.941 125.315 25.2112 125.211 24.8072C125.21 24.8072 125.209 24.8072 125.209 24.8072C124.782 24.8414 124.355 24.8756 123.928 24.9097ZM79.3692 24.571C78.4801 23.9275 78.9013 24.7406 79.6886 24.9482C79.9271 24.6593 79.515 24.6757 79.3692 24.571ZM76.5238 24.0912C76.2764 23.9754 73.7273 24.1023 74.1162 24.4428C74.2545 24.5642 75.7203 24.2581 75.7878 24.2817C75.8902 24.3166 75.4226 24.6932 76.2044 24.6186C76.1587 24.491 76.6085 24.1299 76.5238 24.0912ZM78.6333 24.159C77.7497 23.6696 77.5512 24.5722 78.2157 24.5746C78.4753 24.5762 78.7594 24.2296 78.6333 24.159ZM82.2425 24.2359C81.9245 24.1503 81.0777 24.0254 80.494 24.3256C81.2751 24.3513 82.0563 24.3769 82.8374 24.4025C82.9275 24.2325 82.5206 24.3111 82.2403 24.2359C82.2411 24.2359 82.2418 24.2359 82.2425 24.2359ZM278.968 22.8827C278.266 22.6267 279.884 22.5286 279.952 22.5915C280.155 22.8003 279.282 22.997 278.968 22.8827ZM7.71561 16.8601C7.52054 16.7581 7.39301 16.4224 6.96365 16.5983C7.39553 16.8461 7.8274 17.0939 8.25928 17.3417C8.5949 16.7739 7.92882 16.9727 7.71561 16.8601ZM6.06643 14.7855C6.12744 14.7717 5.79419 13.8986 6.58233 14.4815C7.11485 14.8751 4.21901 15.2587 3.69628 14.8715C4.27386 14.6916 5.54128 14.8976 6.06643 14.7855ZM0.993939 11.006C0.960549 10.9364 2.06075 10.8343 2.1881 10.8833C2.85676 11.1421 1.17459 11.3791 0.993939 11.006ZM4.50378 11.1727C3.9878 11.0031 5.13084 10.8938 5.47149 10.9914C5.50453 11.1539 4.58348 11.1974 4.50378 11.1727ZM271.859 10.2369C271.301 9.64352 270.801 10.921 271.66 10.6636C271.701 10.6515 271.883 10.266 271.859 10.2369ZM2.06953 10.1253C2.58551 10.2948 1.44247 10.4041 1.10182 10.3065C1.07014 10.1442 1.99097 10.1005 2.06953 10.1253ZM271.466 8.8233C270.724 8.39629 270.986 9.82944 271.078 9.88718C271.46 10.1153 272.769 9.55276 273.036 9.41292C271.077 9.62799 271.815 9.02452 271.466 8.8233ZM268.046 9.68393C267.358 9.83682 269.116 10.1292 269.452 9.72971C269.11 9.74883 268.242 9.63974 268.046 9.68393ZM263.871 9.22432C263.501 9.17299 262.401 9.05009 262.216 9.27559C262.62 9.23477 263.714 9.45635 263.871 9.22432ZM263.033 8.54863C262.455 8.24223 262.316 9.13498 262.983 8.86908C263.009 8.85879 263.054 8.56567 263.033 8.54863ZM259.783 8.22636C259.404 7.87133 258.971 8.73591 259.585 8.75921C259.768 8.76455 259.823 8.26706 259.783 8.22636ZM270.538 7.2815C269.995 7.12904 269.295 7.74819 270.454 7.81618C270.047 7.91079 269.64 8.0054 269.233 8.10001C270.751 8.44705 270.64 7.58842 271.076 7.62392C271.686 7.67437 271.637 8.38291 271.515 8.6054C272.015 8.1713 274.138 8.16435 275.365 8.0817C274.286 7.89952 272.537 7.58369 271.472 7.46827C271.169 7.43486 270.874 7.62917 270.615 7.60744C270.199 7.57155 270.568 7.29176 270.54 7.2815C270.539 7.2815 270.539 7.2815 270.538 7.2815ZM255.51 8.21354C254.396 7.81136 255.101 8.67968 255.73 8.52483C255.757 8.51291 255.538 8.22336 255.51 8.21354ZM0.591259 7.48661C2.0807 7.84955 0.998059 8.33058 4.11391 7.60013C2.80487 8.11724 4.04152 7.97202 3.786 8.1806C3.58102 8.34562 2.81296 8.20896 3.25942 8.54133C2.67259 8.17957 0.124853 8.27963 0.0112705 8.22089C0.0123386 8.22089 0.0134067 8.22089 0.0144749 8.22089C-0.0537439 8.18609 0.115982 7.37118 0.591259 7.48661ZM263.865 6.95372C263.493 5.90015 263.348 7.5724 262.617 6.6992C261.643 7.96721 265.305 6.69938 265.748 7.77041C261.772 7.64596 268.376 8.83165 265.6 7.22839C267.887 7.81029 266.349 7.02983 266.702 6.82555C267.08 6.60793 268.373 6.84443 268.308 6.452C268.307 6.452 268.306 6.452 268.305 6.452C267.514 6.47946 266.723 6.50693 265.932 6.5344C266.706 7.38093 265.09 7.1271 264.541 6.43735C264.316 6.60947 264.091 6.7816 263.865 6.95372ZM268.343 7.74843C268.265 7.72905 266.544 7.8477 266.655 8.01761C266.885 8.12598 269.327 7.99604 268.343 7.74843ZM275.916 7.56349C275.298 7.56142 274.343 7.39628 274.006 7.71547C274.624 7.71762 275.579 7.88286 275.916 7.56349ZM244.102 7.50306C243.314 7.765 245.739 7.84259 245.038 7.53236C245.003 7.51776 244.141 7.49083 244.102 7.50306ZM262.074 7.11303C261.273 6.79105 261.652 7.81591 262.245 7.54884C262.279 7.5331 262.111 7.12772 262.074 7.11303ZM1.79823 7.36209C1.85179 7.11099 4.01283 7.28736 4.39589 7.28518C4.17825 7.51858 1.73679 7.64994 1.79823 7.36209ZM277.003 6.62412C275.774 5.72125 274.106 6.7641 273.923 6.74131C273.741 6.71809 274.026 6.32342 273.985 6.31283C273.89 6.29069 271.953 6.32381 271.859 6.35128C271.792 6.3727 272.143 6.92733 271.743 7.10205C272.523 6.7869 276.064 6.98406 276.248 6.92259C276.39 6.87352 275.317 6.29109 277.001 6.62412C277.002 6.62412 277.002 6.62412 277.003 6.62412ZM273.465 6.62046C273.949 6.85295 272.592 6.88204 272.264 6.79625C271.534 6.60426 273.403 6.59291 273.465 6.62046ZM270.201 6.40622C270.046 6.35407 268.648 6.30671 268.529 6.56553C269.191 6.90128 270.553 6.52772 270.201 6.40622ZM254.637 6.44101C254.273 6.47417 253.274 6.27528 253.217 6.50144C253.581 6.46845 254.58 6.66719 254.637 6.44101ZM9.17145 5.38814C8.56793 5.19889 9.96622 5.12158 10.3742 5.21235C10.3963 5.36321 9.22283 5.40439 9.17145 5.38814ZM261.938 4.95048C261.723 4.8817 257.335 5.05332 256.72 5.15922C257.322 5.33026 261.671 5.34341 261.868 5.25994C261.926 5.23494 261.966 4.9613 261.938 4.95048ZM271.429 4.8461C271.831 4.51305 272.094 4.9125 272.144 4.91751C272.642 4.96848 273.674 4.89339 273.447 5.21416C272.569 5.08474 270.628 5.50748 271.429 4.8461ZM254.325 4.934C252.835 5.05759 255.697 5.40847 255.321 5.06034C255.297 5.0393 254.479 4.92102 254.325 4.934ZM262.429 4.85343C262.757 4.58431 267.147 4.8164 267.851 4.8168C267.22 5.31317 266.712 4.93615 265.864 4.96146C265.635 4.96888 265.696 5.17538 265.671 5.1757C265.275 5.18527 265.572 4.94677 265.328 4.94315C265.173 4.94152 261.966 5.23259 262.429 4.85343ZM271.658 4.61538C271.904 4.42446 274.644 4.34308 274.755 4.39381C275.58 4.77116 271.871 4.68184 271.658 4.61538ZM262.026 4.41212C262.498 3.83525 264.678 4.22158 263.186 4.50917C263.043 4.53534 262.44 4.28527 262.026 4.41212ZM254.484 4.38466C254.411 4.36769 252.857 4.25238 252.829 4.43593C253.054 4.50726 255.318 4.57125 254.484 4.38466ZM255.289 3.76391C255.252 3.76831 255.616 4.12183 254.888 4.07703C254.827 4.07281 254.714 3.67507 253.798 3.82067C253.612 3.85066 253.325 4.11378 253.345 4.13013C254.299 4.75432 257.17 3.55884 255.289 3.76391ZM271.708 4.2931C271.561 4.12522 271.917 3.62692 272.238 3.87927C272.376 3.98823 272.119 4.28728 271.708 4.2931ZM249.558 4.22352C250.461 3.92132 247.626 3.86418 247.481 3.94153C247.572 4.12977 249.468 4.25304 249.558 4.22352ZM10.5846 3.05528C10.5839 3.05528 10.5831 3.05528 10.5824 3.05528C11.3421 3.12376 10.8716 3.37516 10.9071 3.38305C12.5253 3.75231 12.0961 3.18291 12.3491 3.11571C12.8917 2.97038 12.8043 3.66282 13.7195 3.37573C12.2066 3.79968 13.5837 3.62195 13.6266 3.8683C13.7961 4.87362 11.6123 3.39757 10.858 3.60828C10.7529 3.63746 11.5289 3.95831 11.2596 4.04958C10.3841 4.34534 7.66959 2.79342 10.5846 3.05528ZM272.486 3.83532C272.838 3.54002 275.512 3.82644 274.803 4.0697C274.689 4.10871 271.968 4.26573 272.486 3.83532ZM147.612 3.39952C148.255 3.14397 146.766 2.84355 146.49 3.04245C146.353 3.14155 147.33 3.51168 147.612 3.39952ZM137.173 2.30634C136.409 2.35822 135.604 3.42391 136.554 3.25853C136.655 3.24045 137.26 2.45417 137.173 2.30634ZM187.301 2.85384C186.504 2.473 186.552 3.18061 187.137 3.17063C187.344 3.16722 187.327 2.8659 187.301 2.85384ZM156.877 2.9454C156.797 2.9207 155.876 2.96588 155.909 3.12852C156.25 3.22609 157.393 3.11496 156.877 2.9454ZM187.555 2.75313C187.082 2.88066 187.896 3.39246 188.473 2.8923C188.18 2.93332 187.603 2.7401 187.555 2.75313ZM260.379 2.84834C259.983 3.13891 258.863 3.05111 258.22 3.10104C258.151 2.7246 259.919 2.91659 260.379 2.84834ZM140.413 2.73483C139.691 3.00014 141.239 3.21735 141.097 2.86667C141.077 2.84762 140.442 2.72351 140.413 2.73483ZM213.02 2.71468C212.494 2.93923 214.162 3.24121 213.703 2.84652C213.681 2.83043 213.048 2.70219 213.02 2.71468ZM220.303 2.84469C219.905 2.76894 218.205 2.79224 218.867 3.01132C218.969 3.04498 220.273 3.05036 220.303 2.84469ZM12.394 2.8447C12.1792 2.45801 13.4257 2.55006 13.6041 2.61765C13.6742 2.64575 12.6741 3.34782 12.394 2.8447ZM182.124 2.79342C181.712 2.8418 180.642 2.74986 180.454 2.95273C180.958 2.91073 182.26 3.19753 182.124 2.79342ZM143.708 2.73299C143.079 2.3128 142.004 2.35427 142.27 2.90329C143.457 2.8665 142.123 2.40981 143.708 2.73299ZM190.211 2.30084C189.88 2.26879 189.627 2.79605 189.664 2.82088C190.023 3.05721 190.54 2.50598 190.211 2.30084ZM165.391 2.73482C165.372 2.5095 164.312 2.61177 164.453 2.7568C164.5 2.80548 165.407 2.91717 165.391 2.73482ZM246.493 2.72017C246.008 2.5145 247.491 2.31344 247.93 2.55353C248.143 2.8995 246.555 2.74379 246.493 2.72017ZM199.383 2.43268C199.432 2.0983 197.775 2.28736 198.428 2.56453C198.592 2.63388 199.366 2.54449 199.383 2.43268ZM215.248 2.03167C214.136 2.43043 218.804 2.71352 217.577 2.21661C217.49 2.18121 215.345 1.99799 215.248 2.03167ZM222.871 2.2807C222.679 2.23676 222.775 1.11313 223.568 1.54642C223.673 1.60261 223.185 1.89964 223.27 1.96758C223.32 2.00629 225.046 2.1641 225.126 2.13787C225.211 2.10809 225.111 1.74795 225.197 1.70756C225.295 1.66241 226.357 1.97877 226.914 1.98223C227.962 1.98816 228.075 1.68841 228.161 1.68742C228.412 1.68543 228.833 1.89826 229.34 1.89799C231.9 1.8956 235.814 1.64152 237.843 2.27704C236.037 2.02183 234.317 2.2926 232.52 2.37592C233.046 1.75023 229.877 2.85801 231.731 2.13604C230.877 2.29264 223.499 2.41788 222.873 2.2807C222.872 2.2807 222.872 2.2807 222.871 2.2807ZM134.159 1.99139C134.628 1.60775 132.222 1.69404 132.018 2.13788C132.335 2.19948 134.101 2.03487 134.159 1.99139ZM145.261 1.05568C145.485 0.989463 145.697 0.239563 146.869 0.619876C146.87 0.619876 146.871 0.619876 146.872 0.619876C147.215 0.730942 146.824 0.913667 146.887 0.978776C146.91 1.00536 147.979 1.3784 147.091 1.43839C145.738 1.53043 146.964 0.880511 146.242 0.872572C146.154 0.871957 144.788 1.27787 144.867 1.36698C144.875 1.37735 145.286 1.29149 145.354 1.32852C145.611 1.46774 145.486 1.70191 145.522 1.71306C145.64 1.74161 147.8 1.34266 148.114 1.69108C148.216 1.80344 144.671 2.06262 144.533 2.00421C144.446 1.9674 144.482 1.31737 144.392 1.25345C144.345 1.2216 142.919 1.46519 142.734 1.40543C142.68 1.38815 142.639 1.36951 142.609 1.35416C142.825 1.55527 141.534 1.54078 141.573 1.31387C141.596 1.22469 142.485 1.27631 142.516 1.2919C142.53 1.2985 142.542 1.3076 142.554 1.31387C142.37 1.06879 145.379 1.07984 144.73 0.715095C145.602 0.515282 144.606 1.25017 145.261 1.05568ZM149.455 0.654668C149.365 0.723029 149.275 0.791392 149.185 0.859754C150.712 0.692429 152.474 1.02151 154.234 1.01906C154.68 1.01894 154.166 0.600845 154.752 0.715094C155.22 0.806654 155.739 1.19445 155.484 1.28091C155.422 1.30249 154.468 1.0499 153.99 1.07583C152.58 1.15257 152.936 1.5111 152.854 1.52079C152.763 1.53098 151.875 1.27884 151.39 1.29007C150.172 1.31909 149.615 1.53921 147.95 1.25161C148.911 1.01532 148.384 0.501976 149.455 0.654668ZM206.382 1.41824C206.44 1.19257 207.44 1.39279 207.803 1.35965C207.746 1.58588 206.746 1.38508 206.382 1.41824ZM57.4482 1.12527C57.1413 1.4956 59.4421 1.5873 58.8357 1.27909C58.7016 1.21069 57.7373 1.12791 57.4482 1.12527ZM67.7844 1.3505C68.0922 1.24812 66.8529 0.981485 66.8552 1.2681C66.857 1.36001 67.7448 1.36382 67.7844 1.3505ZM169.197 1.01906C169.255 1.00746 170.102 1.08995 170.128 1.10879C170.689 1.502 167.903 1.27473 169.197 1.01906ZM80.3498 0.894551C79.277 1.13728 82.506 1.24249 81.5194 0.933005C81.4702 0.91793 80.4014 0.882754 80.3498 0.894551ZM84.838 0.826799C84.5808 0.839808 83.4388 0.719287 83.4238 0.832293C83.401 1.0146 84.7082 1.13917 84.838 0.826799ZM190.434 0.901866C190.31 0.484603 191.816 0.800597 192.34 0.748051C192.464 1.1656 190.958 0.849172 190.434 0.901866ZM180.929 0.594238C187.278 0.265305 185.878 1.15681 180.551 0.797492C180.543 0.529805 180.528 0.614953 180.929 0.594238ZM189.059 0.643677C188.828 0.910989 188.107 0.831724 187.62 0.81031C187.707 0.624459 188.707 0.69172 189.059 0.643677ZM54.7085 0.552133C55.1067 0.214455 56.8699 0.630753 56.5564 0.770037C56.4834 0.800115 54.5623 0.737833 54.7085 0.552133ZM169.729 0.661991C169.581 0.25619 171.487 0.421717 171.633 0.511838C172.222 0.874332 169.883 0.572425 169.729 0.661991ZM199.445 0.544796C199.782 0.226938 200.738 0.390424 201.353 0.394643C201.073 0.666436 199.967 0.550514 199.445 0.544796ZM195.006 0.295763C195.044 0.283563 195.902 0.31226 195.94 0.326893C196.643 0.63735 194.217 0.557842 195.006 0.295763ZM9.53141 0.00280011C9.55998 -0.00744331 10.2095 0.0128241 10.2321 0.0247727C10.8118 0.329947 8.86251 0.267589 9.53141 0.00280011Z" fill="#024FB6"/>
</svg>
